<svg width="22" height="18" viewBox="0 0 22 18" fill="none" xmlns="http://www.w3.org/2000/svg">
<path d="M11 0.107208C6 0.107208 1.73 3.76347 0 8.92456C1.73 14.0856 6 17.7419 11 17.7419C16 17.7419 20.27 14.0856 22 8.92456C20.27 3.76347 16 0.107208 11 0.107208ZM11 14.8028C8.24 14.8028 6 12.1693 6 8.92456C6 5.67977 8.24 3.04632 11 3.04632C13.76 3.04632 16 5.67977 16 8.92456C16 12.1693 13.76 14.8028 11 14.8028ZM11 5.39762C9.34 5.39762 8 6.97298 8 8.92456C8 10.8761 9.34 12.4515 11 12.4515C12.66 12.4515 14 10.8761 14 8.92456C14 6.97298 12.66 5.39762 11 5.39762Z" fill="black" fill-opacity="0.54"/>
</svg>
